<svg xmlns="http://www.w3.org/2000/svg" fill="none" viewBox="0 0 147 103"><g fill="#8E92B6" stroke="#8E92B6" clip-path="url(#a)"><path d="M20.098 55.534c1.121-.581 2.342-.704 3.45-.311 1.062.377 1.896 1.197 2.363 2.28v.002l3.274 7.694c.21.491.739.76 1.26.638l6.883-1.61a4.4 4.4 0 0 1 3.249.51l.192.121.183.13a4.25 4.25 0 0 1 1.671 2.738h.001l1.97 11.85v.001a4.31 4.31 0 0 1-2.543 4.675l-7.764 3.342a1 1 0 0 1-.277.076v-.001l-7.766 1.07-2.15.925a1.033 1.033 0 0 1-.816-1.897l2.276-.98a1 1 0 0 1 .267-.073l7.776-1.07 7.638-3.288a2.25 2.25 0 0 0 1.323-2.442l-1.97-11.848a2.2 2.2 0 0 0-.967-1.49 2.34 2.34 0 0 0-1.823-.337v.001l-6.882 1.61a3.16 3.16 0 0 1-3.63-1.841l-3.272-7.69c-.253-.589-.658-.973-1.157-1.15-.528-.188-1.164-.14-1.803.197h-.001c-.995.519-1.436 1.78-.963 2.879l.927 2.153a6.5 6.5 0 0 1 .215 4.564v.002l-.682 2.106a6.5 6.5 0 0 1-3.612 3.968 1.032 1.032 0 0 1-.816-1.896 4.43 4.43 0 0 0 2.464-2.707l.681-2.106.058-.192a4.43 4.43 0 0 0-.205-2.922l-.927-2.154c-.89-2.067-.067-4.497 1.904-5.526zm-9.776 16.944a3.165 3.165 0 0 1 4.154 1.655L21.21 89.78a3.165 3.165 0 0 1-1.653 4.154 3.165 3.165 0 0 1-4.155-1.654L8.668 76.633a3.165 3.165 0 0 1 1.654-4.155zm.816 1.896a1.1 1.1 0 0 0-.574 1.442l6.735 15.647a1.1 1.1 0 0 0 1.443.575 1.1 1.1 0 0 0 .573-1.442l-6.736-15.647a1.1 1.1 0 0 0-1.44-.575z"/></g><circle cx="92" cy="11" r="10" stroke="#363B52" stroke-width="2"/><circle cx="139.5" cy="95.5" r="7.5" fill="#2B64F7"/><defs><clipPath id="a"><path fill="#fff" d="m0 61.861 36.11-15.544 15.543 36.11-36.11 15.544z"/></clipPath></defs></svg>